HIERARCHY
ROOT Hips
{
  OFFSET 40.9192 92.6879 18.85
  CHANNELS 6 Xposition Yposition Zposition Zrotation Xrotation Yrotation
  JOINT LeftUpLeg
  {
    OFFSET 8.64259 1.95398 -2.38835
    CHANNELS 3 Zrotation Xrotation Yrotation
    JOINT LeftLeg
    {
      OFFSET 43.7702 0 0
      CHANNELS 3 Zrotation Xrotation Yrotation
      JOINT LeftFoot
      {
        OFFSET 40.6238 0 0
        CHANNELS 3 Zrotation Xrotation Yrotation
        JOINT LeftToeBase
        {
          OFFSET 12.7242 0 0
          CHANNELS 3 Zrotation Xrotation Yrotation
          End Site
          {
            OFFSET 0 0 0
          }
        }
      }
    }
  }
  JOINT RightUpLeg
  {
    OFFSET -8.2249 1.95398 -2.59336
    CHANNELS 3 Zrotation Xrotation Yrotation
    JOINT RightLeg
    {
      OFFSET 43.5653 0 0
      CHANNELS 3 Zrotation Xrotation Yrotation
      JOINT RightFoot
      {
        OFFSET 40.6238 0 0
        CHANNELS 3 Zrotation Xrotation Yrotation
        JOINT RightToeBase
        {
          OFFSET 12.7242 0 0
          CHANNELS 3 Zrotation Xrotation Yrotation
          End Site
          {
            OFFSET 0 0 0
          }
        }
      }
    }
  }
  JOINT Spine
  {
    OFFSET 0.165834 0.87714 6.61349
    CHANNELS 3 Zrotation Xrotation Yrotation
    JOINT Spine1
    {
      OFFSET 7.38963 1.71661e-005 0
      CHANNELS 3 Zrotation Xrotation Yrotation
      JOINT Spine2
      {
        OFFSET 11.9445 1.14441e-005 0
        CHANNELS 3 Zrotation Xrotation Yrotation
        JOINT Spine3
        {
          OFFSET 14.7254 4.19617e-005 0
          CHANNELS 3 Zrotation Xrotation Yrotation
          JOINT Spine4
          {
            OFFSET 10.9679 0 0
            CHANNELS 3 Zrotation Xrotation Yrotation
            JOINT RightShoulder
            {
              OFFSET 2.46616 -1.6653 3.69651
              CHANNELS 3 Zrotation Xrotation Yrotation
              JOINT RightArm
              {
                OFFSET 13.0012 0 0
                CHANNELS 3 Zrotation Xrotation Yrotation
                JOINT RightForeArm
                {
                  OFFSET 28.7848 1.52588e-005 0
                  CHANNELS 3 Zrotation Xrotation Yrotation
                  JOINT RightHand
                  {
                    OFFSET 26.5688 1.52588e-005 0
                    CHANNELS 3 Zrotation Xrotation Yrotation
                    End Site
                    {
                      OFFSET 0 0 0
                    }
                  }
                }
              }
            }
            JOINT LeftShoulder
            {
              OFFSET 2.38034 -1.29275 -3.7523
              CHANNELS 3 Zrotation Xrotation Yrotation
              JOINT LeftArm
              {
                OFFSET 16.3182 6.10351e-005 0
                CHANNELS 3 Zrotation Xrotation Yrotation
                JOINT LeftForeArm
                {
                  OFFSET 27.0901 0 0
                  CHANNELS 3 Zrotation Xrotation Yrotation
                  JOINT LeftHand
                  {
                    OFFSET 24.5451 1.52588e-005 0
                    CHANNELS 3 Zrotation Xrotation Yrotation
                    End Site
                    {
                      OFFSET 0 0 0
                    }
                  }
                }
              }
            }
            JOINT Neck
            {
              OFFSET 5.0226 -0.0266342 0
              CHANNELS 3 Zrotation Xrotation Yrotation
              JOINT Head
              {
                OFFSET 6.69363 2.86102e-005 0
                CHANNELS 3 Zrotation Xrotation Yrotation
                End Site
                {
                  OFFSET 0 0 0
                }
              }
            }
          }
        }
      }
    }
  }
}
MOTION
Frames:	7
Frame Time:	0.0416667
42.63 97.3016 19.0754 91.9554 -38.0671 90.6196 -170.273 4.52997 92.8404 -11.9921 8.93357 -2.80404 63.9512 2.09381 0.571617 29.7205 0.595776 1.65805 173.328 3.08005 87.9647 -12.131 -10.633 -1.50824 66.141 -3.39868 -1.8781 28.8235 0.12621 -1.93549 0.104903 7.21133 -89.8638 12.4532 0.273198 0.240666 0.782246 0.283518 0.22841 -21.7529 0.188239 0.311652 -1.74021 0.188228 0.311646 95.0694 -47.4478 -93.3783 32.226 -6.29387 5.28 -9.38121 -23.1924 -42.9806 -4.68608 -0.720409 4.13866 -95.9401 -49.8791 69.886 -25.3302 10.4337 4.87611 3.63776 8.04357 -33.1238 10.6958 0.733489 2.81439 9.63791 -0.664239 2.31098 -2.76824 -1.12297 -0.972346 
42.5922 97.2967 19.0924 91.9255 -38.0635 90.5878 -170.441 4.68397 92.7384 -12.3272 8.27248 -2.59258 64.1244 2.20336 -0.0253499 29.5725 0.478228 1.62886 173.343 3.04775 88.0048 -11.9894 -10.447 -1.4967 66.1969 -3.43385 -1.89663 28.6857 0.108221 -1.73069 0.115277 7.21054 -89.8705 12.4525 0.290787 0.225242 0.781537 0.300416 0.212219 -21.7536 0.209638 0.302222 -1.74097 0.209648 0.302222 95.3657 -47.3133 -92.9245 32.3839 -6.2324 5.16017 -9.28049 -23.217 -42.5796 -4.70933 -0.70298 3.76024 -96.2337 -50.0295 69.5013 -25.2721 10.5194 5.17666 3.5709 7.92366 -33.297 11.2124 0.741736 2.60895 9.89008 -0.712181 2.28463 -2.98702 -1.16599 -0.858333 
42.3802 97.2689 18.9836 92.4216 -38.2124 90.8964 -170.403 4.87997 92.7469 -13.0576 9.22437 -2.6571 63.6463 2.37937 1.61983 30.4097 1.21609 0.906075 173.576 3.55788 88.1115 -13.4298 -10.7552 -1.7132 66.4223 -3.4803 -1.91136 28.4736 0.135397 -2.32833 0.131093 7.26452 -89.8579 12.3445 0.327977 0.246534 0.673531 0.338515 0.231848 -21.8616 0.238756 0.333717 -1.84899 0.238726 0.333703 95.2041 -47.658 -93.1332 32.1501 -6.22078 5.30307 -9.6215 -23.7624 -42.7174 -4.66594 -0.734069 4.28984 -96.0576 -49.891 69.7169 -25.5967 10.5001 5.90375 4.04578 7.89608 -34.627 10.4779 0.767754 3.23825 9.6741 -0.780866 1.99779 -2.63049 -1.16924 -0.533413 
41.9953 97.1627 18.5222 93.1651 -38.6545 91.2647 -170.404 5.61342 92.57 -15.1128 8.1461 -2.67066 63.7248 2.64474 0.895771 31.0981 1.75195 1.11787 174.002 4.91467 88.0901 -16.3407 -11.1332 -2.18215 67.4634 -3.86346 -2.09449 26.7183 0.0111996 -1.37662 0.209896 7.37429 -89.8463 12.1247 0.489977 0.25252 0.45382 0.50062 0.230705 -22.0816 0.391459 0.388109 -2.06899 0.391432 0.388102 95.2937 -47.708 -92.9834 32.1766 -6.49455 5.53509 -9.69998 -23.6874 -43.3837 -5.51807 -0.79413 4.4815 -96.0864 -49.7383 69.6269 -26.2404 10.2597 6.95907 4.22457 7.18534 -36.2165 11.3419 0.806139 3.07159 9.6863 -0.926163 1.66217 -2.49836 -1.24506 -0.431414 
41.1558 97.0721 17.5575 93.4965 -40.0339 90.9459 -170.444 8.0751 92.0097 -18.9533 6.88098 -2.95602 61.8019 1.40411 -0.0631615 34.0539 4.1089 1.64397 175.123 7.83793 88.0233 -20.4652 -11.909 -3.38794 65.492 -3.18878 -1.75813 30.414 0.18533 -2.08758 0.305566 7.5391 -89.7702 11.7945 0.715778 0.38229 0.123711 0.731914 0.350416 -22.4121 0.567789 0.579743 -2.39943 0.567805 0.579748 95.0928 -47.1541 -93.3844 32.5315 -7.51426 6.51059 -12.292 -24.6208 -47.6038 -6.06123 -0.845474 4.41925 -95.7115 -49.3395 70.0563 -27.3636 9.66746 8.19759 3.62341 4.76795 -39.0154 13.2773 0.851153 2.488 9.58943 -0.849304 0.770832 -1.05008 -0.977527 0.25561 
39.91 96.9203 16.0136 93.403 -41.3437 90.8545 -170.031 12.5458 92.018 -24.7984 9.65991 -3.54204 60.8999 1.34579 1.05825 34.8994 4.71954 6.53294 176.682 11.5685 88.3612 -24.4369 -12.1091 -4.64486 62.7734 -2.15441 -1.18517 32.6263 0.250696 -1.89553 0.186254 7.84441 -89.6342 11.183 0.540871 0.675196 -0.488004 0.57003 0.650734 -23.0221 0.312937 0.806526 -3.00948 0.312931 0.806517 95.035 -47.0641 -93.4901 32.9117 -10.2612 6.86233 -11.0031 -22.3849 -50.9636 -10.8873 -0.842566 1.96342 -95.793 -48.4045 69.6426 -28.4938 6.73136 10.674 3.38646 1.13751 -46.249 15.3616 1.05085 2.93652 9.9302 -0.294722 -2.26363 1.54752 0.287523 2.26005 
38.4851 96.843 13.6744 91.2415 -44.5241 90.3525 -170.661 17.5363 92.5156 -27.092 12.8541 -3.02443 60.1933 0.681385 -0.397617 34.0632 4.03361 4.72265 178.238 16.176 89.2769 -25.5405 -13.6037 -5.05103 59.6763 -1.16979 -0.617227 32.1544 0.285012 -3.27938 0.110175 8.04114 -89.5276 10.7889 0.437426 0.898649 -0.882295 0.476551 0.878528 -23.4151 0.147124 0.988562 -3.40242 0.147155 0.988561 94.8864 -47.2815 -93.6963 33.6747 -11.834 7.95491 -6.43873 -19.677 -50.8679 -14.7043 -0.7228 0.0445819 -95.1967 -47.5266 70.2646 -28.2658 3.65379 11.8655 2.89245 -1.34601 -54.8601 16.2284 1.03852 2.52607 9.02362 0.98594 -4.45585 4.84897 2.04665 2.70932 
